<svg width="41" height="40" viewBox="0 0 41 40" fill="none" xmlns="http://www.w3.org/2000/svg">
<path d="M20.5 11.6666V35" stroke="#6C00BF" stroke-width="3.33333" stroke-linecap="round" stroke-linejoin="round"/>
<path d="M27.167 20H30.5003" stroke="#6C00BF" stroke-width="3.33333" stroke-linecap="round" stroke-linejoin="round"/>
<path d="M27.167 13.3334H30.5003" stroke="#6C00BF" stroke-width="3.33333" stroke-linecap="round" stroke-linejoin="round"/>
<path d="M5.50016 30C5.05814 30 4.63421 29.8244 4.32165 29.5118C4.00909 29.1993 3.8335 28.7754 3.8335 28.3333V6.66667C3.8335 6.22464 4.00909 5.80072 4.32165 5.48816C4.63421 5.17559 5.05814 5 5.50016 5H13.8335C15.6016 5 17.2973 5.70238 18.5475 6.95262C19.7978 8.20286 20.5002 9.89856 20.5002 11.6667C20.5002 9.89856 21.2025 8.20286 22.4528 6.95262C23.703 5.70238 25.3987 5 27.1668 5H35.5002C35.9422 5 36.3661 5.17559 36.6787 5.48816C36.9912 5.80072 37.1668 6.22464 37.1668 6.66667V28.3333C37.1668 28.7754 36.9912 29.1993 36.6787 29.5118C36.3661 29.8244 35.9422 30 35.5002 30H25.5002C24.1741 30 22.9023 30.5268 21.9646 31.4645C21.0269 32.4021 20.5002 33.6739 20.5002 35C20.5002 33.6739 19.9734 32.4021 19.0357 31.4645C18.098 30.5268 16.8262 30 15.5002 30H5.50016Z" stroke="#6C00BF" stroke-width="3.33333" stroke-linecap="round" stroke-linejoin="round"/>
<path d="M10.5 20H13.8333" stroke="#6C00BF" stroke-width="3.33333" stroke-linecap="round" stroke-linejoin="round"/>
<path d="M10.5 13.3334H13.8333" stroke="#6C00BF" stroke-width="3.33333" stroke-linecap="round" stroke-linejoin="round"/>
</svg>
