<svg width="40" height="40" viewBox="0 0 40 40" fill="none" xmlns="http://www.w3.org/2000/svg">
<path d="M31.6668 23.3333C34.1502 20.9 36.6668 17.9833 36.6668 14.1667C36.6668 11.7355 35.7011 9.40394 33.982 7.68485C32.2629 5.96577 29.9313 5 27.5002 5C24.5668 5 22.5002 5.83333 20.0002 8.33333C17.5002 5.83333 15.4335 5 12.5002 5C10.069 5 7.73743 5.96577 6.01835 7.68485C4.29927 9.40394 3.3335 11.7355 3.3335 14.1667C3.3335 18 5.8335 20.9167 8.3335 23.3333L20.0002 35L31.6668 23.3333Z" stroke="#6C00BF" stroke-width="3.33333" stroke-linecap="round" stroke-linejoin="round"/>
<path d="M20 8.33337L15.0667 13.2667C14.728 13.6029 14.4593 14.0027 14.2759 14.4433C14.0925 14.8838 13.998 15.3562 13.998 15.8334C13.998 16.3105 14.0925 16.783 14.2759 17.2235C14.4593 17.664 14.728 18.0639 15.0667 18.4C16.4333 19.7667 18.6167 19.8167 20.0667 18.5167L23.5167 15.35C24.3814 14.5654 25.5073 14.1307 26.675 14.1307C27.8427 14.1307 28.9686 14.5654 29.8333 15.35L34.7667 19.7834" stroke="#6C00BF" stroke-width="3.33333" stroke-linecap="round" stroke-linejoin="round"/>
<path d="M29.9998 25L26.6665 21.6666" stroke="#6C00BF" stroke-width="3.33333" stroke-linecap="round" stroke-linejoin="round"/>
<path d="M24.9998 30L21.6665 26.6666" stroke="#6C00BF" stroke-width="3.33333" stroke-linecap="round" stroke-linejoin="round"/>
</svg>
