<svg width="33" height="32" viewBox="0 0 33 32" fill="none" xmlns="http://www.w3.org/2000/svg">
<path d="M23.1484 2.66675H9.8151C6.13321 2.66675 3.14844 5.65152 3.14844 9.33341V22.6667C3.14844 26.3486 6.13321 29.3334 9.8151 29.3334H23.1484C26.8303 29.3334 29.8151 26.3486 29.8151 22.6667V9.33341C29.8151 5.65152 26.8303 2.66675 23.1484 2.66675Z" stroke="#2E2D36" stroke-width="2.66667" stroke-linecap="round" stroke-linejoin="round"/>
<path d="M21.8146 15.1602C21.9791 16.2698 21.7896 17.4031 21.2729 18.3988C20.7562 19.3946 19.9387 20.202 18.9367 20.7064C17.9347 21.2107 16.7991 21.3863 15.6916 21.2081C14.5841 21.0298 13.5609 20.5069 12.7677 19.7137C11.9744 18.9205 11.4515 17.8973 11.2733 16.7898C11.0951 15.6822 11.2706 14.5467 11.775 13.5447C12.2793 12.5426 13.0868 11.7251 14.0825 11.2085C15.0783 10.6918 16.2116 10.5023 17.3212 10.6668C18.4531 10.8347 19.501 11.3621 20.3101 12.1712C21.1193 12.9804 21.6467 14.0283 21.8146 15.1602Z" stroke="#2E2D36" stroke-width="2.66667" stroke-linecap="round" stroke-linejoin="round"/>
<path d="M23.8149 8.66675H23.8283" stroke="#2E2D36" stroke-width="2.66667" stroke-linecap="round" stroke-linejoin="round"/>
</svg>
