<svg width="33" height="32" viewBox="0 0 33 32" fill="none" xmlns="http://www.w3.org/2000/svg">
<path d="M21.8145 10.6667C23.9362 10.6667 25.971 11.5096 27.4713 13.0099C28.9716 14.5102 29.8145 16.545 29.8145 18.6667V28.0001H24.4811V18.6667C24.4811 17.9595 24.2002 17.2812 23.7001 16.7811C23.2 16.281 22.5217 16.0001 21.8145 16.0001C21.1072 16.0001 20.4289 16.281 19.9288 16.7811C19.4287 17.2812 19.1478 17.9595 19.1478 18.6667V28.0001H13.8145V18.6667C13.8145 16.545 14.6573 14.5102 16.1576 13.0099C17.6579 11.5096 19.6927 10.6667 21.8145 10.6667Z" stroke="#2E2D36" stroke-width="2.66667" stroke-linecap="round" stroke-linejoin="round"/>
<path d="M8.48177 12H3.14844V28H8.48177V12Z" stroke="#2E2D36" stroke-width="2.66667" stroke-linecap="round" stroke-linejoin="round"/>
<path d="M5.8151 8.00008C7.28786 8.00008 8.48177 6.80617 8.48177 5.33341C8.48177 3.86066 7.28786 2.66675 5.8151 2.66675C4.34234 2.66675 3.14844 3.86066 3.14844 5.33341C3.14844 6.80617 4.34234 8.00008 5.8151 8.00008Z" stroke="#2E2D36" stroke-width="2.66667" stroke-linecap="round" stroke-linejoin="round"/>
</svg>
