<svg width="42" height="48" viewBox="0 0 42 48" fill="#ffffff" xmlns="http://www.w3.org/2000/svg">
<path fill-rule="evenodd" clip-rule="evenodd" d="M17.5456 0.670189C15.9437 1.03419 13.1918 1.65222 11.4303 2.0435C8.95724 2.5929 8.16914 2.81334 7.97157 3.01098C7.71879 3.26379 7.71563 3.33387 7.71672 8.75C7.71794 15.0365 7.78662 15.7229 8.69244 18.4995C10.001 22.5111 12.5762 25.9927 15.9899 28.3651C17.0293 29.0874 19.1656 30.2224 20.0726 30.5342C20.7557 30.7691 20.7674 30.7691 21.4489 30.5347C21.8271 30.4048 22.7619 29.9701 23.5263 29.569C28.3038 27.0619 31.889 22.5322 33.1887 17.3613C33.7609 15.0847 33.8064 14.4468 33.807 8.68938C33.8075 3.3169 33.805 3.26452 33.5488 3.00819C33.34 2.79939 32.1012 2.48389 27.1169 1.37067C23.7216 0.612231 20.8344 -0.00446204 20.7009 2.43241e-05C20.5674 0.00463194 19.1475 0.306188 17.5456 0.670189ZM26.4047 3.13841C29.4024 3.80531 31.8757 4.35094 31.9008 4.35094C31.9258 4.35094 31.9228 6.73817 31.894 9.65576C31.837 15.4396 31.7992 15.8063 31.0216 18.1132C29.5109 22.5949 26.0422 26.4274 21.714 28.3969L20.7853 28.8194L19.7502 28.3612C19.1809 28.1093 18.1789 27.5508 17.5235 27.1203C14.193 24.9323 11.7567 21.7684 10.5073 18.0088C9.69849 15.5747 9.68817 15.4771 9.62992 9.66619L9.57689 4.37192L10.5274 4.16191C11.05 4.04636 13.4983 3.49914 15.9679 2.94574C18.4376 2.39247 20.5697 1.93656 20.7061 1.9328C20.8425 1.92904 23.4069 2.47152 26.4047 3.13841ZM16.2106 4.5304C13.8078 5.07834 11.7539 5.56505 11.6465 5.6121C11.0598 5.86891 11.0718 6.72144 11.6684 7.16511L11.9804 7.39718L16.3717 6.42025L20.7631 5.44331L24.3727 6.23437C26.3579 6.66954 28.112 7.08047 28.2708 7.14764L28.5591 7.26975L28.4913 10.7514C28.4435 13.2035 28.3674 14.501 28.2341 15.1389C27.6385 17.9908 26.3685 20.3565 24.3585 22.3583C23.3267 23.3861 21.1733 24.9639 20.8026 24.9639C20.5318 24.9639 19.0346 24.0111 18.1187 23.256C17.0673 22.389 15.7607 20.882 15.1002 19.7744C14.0562 18.0238 13.2784 15.7069 13.1598 13.9948C13.0784 12.8202 13.0307 12.6391 12.7276 12.357C12.1452 11.8148 11.1736 12.2836 11.175 13.106C11.1764 13.8351 11.5356 15.915 11.8515 17.0219C12.5588 19.5005 14.2814 22.2917 16.221 24.1014C17.2558 25.067 18.7055 26.0699 19.9424 26.6759L20.7615 27.0773L21.5807 26.6759C23.0111 25.9751 24.4257 24.9472 25.6843 23.6942C27.469 21.9172 28.7214 19.9067 29.5118 17.5497C30.2031 15.4878 30.2501 15.069 30.3131 10.4107C30.368 6.35598 30.3582 6.08729 30.1477 5.8306C29.9632 5.60567 29.445 5.45156 27.1935 4.952C25.6917 4.61879 23.6364 4.15633 22.6261 3.92413C21.6159 3.69206 20.7421 3.50933 20.6844 3.51818C20.6267 3.52703 18.6135 3.98246 16.2106 4.5304ZM11.4259 9.15681C11.0922 9.58059 11.1082 9.99479 11.4722 10.3584C11.8468 10.7327 12.2795 10.7376 12.7048 10.3721C13.3789 9.79278 12.9899 8.8373 12.0799 8.8373C11.7896 8.8373 11.6072 8.92643 11.4259 9.15681ZM23.2863 11.4673C22.1981 12.447 20.7698 13.7419 20.1123 14.3447L18.917 15.4409L18.5953 15.0702C16.8489 13.0576 16.874 13.0812 16.4667 13.0812C15.9687 13.0812 15.5432 13.5059 15.5432 14.0029C15.5432 14.2857 15.8363 14.7102 16.9002 15.9687C18.2834 17.605 18.5843 17.8263 19.1386 17.6153C19.5923 17.4426 26.4577 11.1531 26.5369 10.8376C26.6133 10.5336 26.4183 10.0766 26.1118 9.84152C25.6184 9.46309 25.3253 9.63163 23.2863 11.4673ZM2.73998 18.584C2.40625 18.7416 1.98599 19.0275 1.80601 19.2195C1.08284 19.9902 1.03115 20.2643 0.447296 26.422C-0.131336 32.5249 -0.135948 32.9192 0.360404 33.7598C0.583095 34.137 2.58391 36.7663 6.6438 42.0172L8.62581 44.5807V45.9183C8.62581 47.1804 8.64353 47.2769 8.94001 47.6289C9.30954 48.0677 9.7872 48.1205 10.2203 47.7705C10.4897 47.5529 10.5093 47.4468 10.5474 46.0004C10.5696 45.1541 10.5565 44.337 10.5183 44.1846C10.4541 43.9292 8.28759 41.0488 3.90489 35.3917C2.94908 34.158 2.08101 32.9711 1.97579 32.7542C1.79982 32.3913 1.80613 32.1255 2.05419 29.4198C2.64301 22.996 2.80163 21.3746 2.86935 21.0839C3.04301 20.3386 3.91253 19.9296 4.58473 20.277C5.31069 20.6521 5.28327 20.4515 5.34916 25.8615C5.40826 30.7199 5.41664 30.8584 5.68205 31.3904C5.97961 31.9869 9.30553 36.3766 9.79315 36.8164C10.1849 37.1698 10.6952 37.1666 11.0318 36.8087C11.4977 36.3131 11.3852 35.8951 10.4663 34.7064C9.28187 33.1742 9.1951 32.9625 9.48866 32.3188C9.69922 31.8571 10.4332 31.6172 10.9863 31.8293C11.2119 31.9157 15.2057 37.1334 15.6405 37.9098C16.2092 38.925 16.2683 39.4391 16.2699 43.3761C16.2716 47.565 16.3144 47.8096 17.073 47.9518C17.6252 48.0552 18.0562 47.7686 18.1572 47.2306C18.1996 47.0053 18.2115 45.1088 18.1838 43.0161C18.1126 37.627 18.3219 38.129 13.5631 31.936C12.5016 30.5546 12.1216 30.2255 11.3076 29.9821C10.1806 29.6453 9.24631 29.9031 8.30385 30.811L7.79985 31.2965L7.6018 30.9946C7.21175 30.3997 7.16952 29.8414 7.16831 25.2679C7.16722 20.6878 7.1654 20.6557 6.88227 20.0482C6.17087 18.5218 4.28389 17.8548 2.73998 18.584ZM35.9312 18.5474C35.2579 18.8518 34.7764 19.2971 34.4334 19.9319C34.1804 20.4005 34.1695 20.586 34.1109 25.3883L34.0502 30.3597L33.7612 30.8241L33.4723 31.2885L32.9724 30.807C32.099 29.9656 31.1151 29.667 30.0974 29.9341C29.1925 30.1718 28.7157 30.6141 27.1733 32.6469C26.3567 33.723 25.3501 35.0481 24.9362 35.5913C23.2599 37.7924 23.0673 38.6276 23.0673 43.6979V47.4068L23.3653 47.7043C23.7424 48.0813 24.173 48.083 24.6078 47.7096L24.9484 47.4172L25.0091 43.2468L25.0697 39.0763L25.5251 38.1737C25.9555 37.3207 29.5854 32.4215 30.1244 31.9663C30.9665 31.255 32.3218 32.3656 31.8002 33.3394C31.7309 33.469 31.294 34.0717 30.8294 34.679C30.1678 35.5436 29.9847 35.872 29.9847 36.1936C29.9847 36.9674 30.8332 37.3693 31.4275 36.8771C31.8371 36.5378 35.2903 31.9906 35.5942 31.3904C35.8651 30.8555 35.8717 30.7461 35.9312 25.8526L35.9919 20.8605L36.2844 20.5496C36.8869 19.9092 37.9436 20.0811 38.2977 20.8771C38.4058 21.1201 38.6601 23.3027 38.9764 26.703C39.387 31.1156 39.4565 32.2237 39.3454 32.5837C39.27 32.8277 38.6485 33.744 37.9642 34.6199C35.9902 37.147 31.2859 43.2763 30.9859 43.7123C30.736 44.0754 30.7129 44.2473 30.7129 45.7347C30.7129 47.2922 30.7253 47.3738 31.0104 47.6812C31.4006 48.1018 31.9085 48.1051 32.2997 47.6894C32.5701 47.4022 32.5973 47.2629 32.6353 45.9657L32.6768 44.5544L35.1838 41.2961C36.5628 39.504 38.3633 37.1647 39.1852 36.0975C41.0836 33.6326 41.1997 33.412 41.2485 32.1785C41.2792 31.4037 40.8379 26.1058 40.3498 21.387C40.2042 19.9801 39.5769 19.0461 38.4269 18.5242C37.7522 18.218 36.6365 18.2283 35.9312 18.5474Z" fill="#FFFFFF"/>
</svg>
