<svg width="40" height="40" viewBox="0 0 40 40" fill="none" xmlns="http://www.w3.org/2000/svg">
<path d="M6.66683 36.6666H33.3335C34.2176 36.6666 35.0654 36.3155 35.6905 35.6903C36.3156 35.0652 36.6668 34.2174 36.6668 33.3333V6.66665C36.6668 5.78259 36.3156 4.93474 35.6905 4.30962C35.0654 3.6845 34.2176 3.33331 33.3335 3.33331H13.3335C12.4494 3.33331 11.6016 3.6845 10.9765 4.30962C10.3514 4.93474 10.0002 5.78259 10.0002 6.66665V33.3333C10.0002 34.2174 9.64897 35.0652 9.02385 35.6903C8.39873 36.3155 7.55088 36.6666 6.66683 36.6666ZM6.66683 36.6666C5.78277 36.6666 4.93493 36.3155 4.30981 35.6903C3.68469 35.0652 3.3335 34.2174 3.3335 33.3333V18.3333C3.3335 16.5 4.8335 15 6.66683 15H10.0002" stroke="#6C00BF" stroke-width="3.33333" stroke-linecap="round" stroke-linejoin="round"/>
<path d="M30.0003 23.3334H16.667" stroke="#6C00BF" stroke-width="3.33333" stroke-linecap="round" stroke-linejoin="round"/>
<path d="M25.0003 30H16.667" stroke="#6C00BF" stroke-width="3.33333" stroke-linecap="round" stroke-linejoin="round"/>
<path d="M16.667 10H30.0003V16.6667H16.667V10Z" stroke="#6C00BF" stroke-width="3.33333" stroke-linecap="round" stroke-linejoin="round"/>
</svg>
